<svg width="448" height="448" viewBox="0 0 448 448" fill="none" xmlns="http://www.w3.org/2000/svg">
<path
  d="M224 0C103.1 0 4.06 95.9 0.119995 216.7C136.3 230.5 311.7 230.5 447.9 216.7C447.6 206.1 446.5 195.5 444.6 185H320V167H352V151H384V135H429.6C425.1 124.6 419.8 114.6 413.8 105H336V87H384V73H365.3V57H336V41H288V23H322.9C292.1 7.86 258.3 0 224 0V0ZM159.7 64H160C195.3 64 224 92.7 224 128C224 163.3 195.3 192 160 192C124.7 192 96 163.3 96 128C96 92.8 124.5 64.17 159.7 64ZM0.259995 234.7C5.96999 354.1 104.4 448 224 448C234.6 446.6 240 448 267.8 441V423H326.8C334.9 418.8 342.8 414.1 350.3 409H336V393H304V375H389.4C397.9 365.7 405.7 355.6 412.5 345H400V329H320V311H336V295H384V279H416V263H444.5C446.2 253.6 447.2 244.2 447.7 234.7C310.9 248.4 137.1 248.4 0.259995 234.7V234.7Z"
  fill="#8257e5"
/>
</svg>
