<svg width="214" height="209" viewBox="0 0 214 209" fill="none" xmlns="http://www.w3.org/2000/svg">
<path
  d="M158.339 65.9869L120.327 104C118.673 100.778 116.505 97.7529 113.809 95.0579C111.145 92.3939 108.131 90.2099 104.876 88.5319L142.887 50.5209C145.747 52.7529 148.502 55.1529 151.108 57.7589C153.701 60.3509 156.103 63.1089 158.339 65.9869ZM73.8164 135.05C77.7414 138.975 82.9594 141.136 88.5094 141.136C94.0594 141.136 99.2773 138.974 103.201 135.05C111.303 126.948 111.303 113.766 103.201 105.664C99.2773 101.74 94.0584 99.5779 88.5094 99.5779C82.9584 99.5779 77.7394 101.74 73.8154 105.664C65.7154 113.766 65.7154 126.949 73.8164 135.05ZM210.116 112.216C210.108 112.209 210.039 112.139 210.032 112.132C207.796 109.896 204.822 108.665 201.66 108.665C198.497 108.665 195.523 109.897 193.288 112.133L183.785 121.636L183.653 121.631L208.261 64.1969C209.469 61.3789 208.839 58.1089 206.671 55.9399L198.135 47.4039L124.249 121.291C124.02 130.139 120.547 138.919 113.809 145.657C107.05 152.415 98.0664 156.137 88.5094 156.137C78.9514 156.137 69.9673 152.415 63.2083 145.657C49.2593 131.707 49.2593 109.009 63.2083 95.0579C69.7503 88.5169 78.3784 84.8309 87.5924 84.6009L161.461 10.7319L152.925 2.19588C150.758 0.0288837 147.49 -0.601116 144.668 0.605884L62.9943 35.6009C55.3953 37.8849 48.1063 41.1809 41.3313 45.4559C39.4023 46.6729 38.1333 48.6999 37.8793 50.9659C37.6793 52.7599 38.1333 54.5489 39.1313 56.0159L24.1683 70.9789C22.7023 69.9819 20.9113 69.5279 19.1193 69.7279C16.8523 69.9809 14.8253 71.2509 13.6083 73.1789C3.06435 89.8879 -1.59665 109.966 0.485348 129.714C2.59735 149.765 11.6283 168.673 25.9103 182.956C42.6223 199.667 64.8423 208.871 88.4783 208.872C88.4803 208.872 88.4794 208.872 88.4814 208.872C105.25 208.872 121.575 204.164 135.688 195.259C137.617 194.042 138.886 192.014 139.14 189.748C139.34 187.955 138.885 186.166 137.888 184.699L152.85 169.736C154.317 170.734 156.104 171.191 157.901 170.988C160.167 170.735 162.194 169.465 163.411 167.536C167.063 161.748 169.994 155.551 172.195 149.107L186.049 149.604C186.14 149.607 186.232 149.609 186.322 149.609C188.414 149.609 190.313 148.741 191.679 147.343C191.72 147.304 191.764 147.27 191.804 147.23L210.094 128.939C212.33 126.703 213.563 123.729 213.563 120.566C213.563 117.403 212.33 114.43 210.116 112.216Z"
  fill="#8257e5"
/>
</svg>
